# Blender v3.1.2 OBJ File: 'NaturePack_AllModels.blend'
# www.blender.org
mtllib tree_lvl_4.mtl
v -0.087302 12.891229 0.163542
v -0.124247 12.845795 0.119228
v -0.032436 12.842591 0.167667
v -0.069381 12.797156 0.123353
v 0.377248 13.317069 -0.688796
v 0.357566 13.292865 -0.712403
v 0.406477 13.291159 -0.686598
v 0.386795 13.266954 -0.710206
v -0.399066 -0.285802 0.130655
v -0.270811 4.904387 -0.011816
v -0.198187 -0.285802 -0.220769
v -0.133855 4.904387 -0.251413
v 0.206593 -0.285801 -0.222514
v 0.142120 4.904387 -0.252603
v 0.502662 -0.285802 0.126766
v 0.281139 4.904387 -0.014197
v 0.209617 -0.285802 0.478587
v 0.144182 4.904387 0.225400
v -0.289398 -0.283082 0.543045
v -0.131793 4.904387 0.226590
v -0.212723 13.727382 0.075937
v -0.289435 13.727382 0.210140
v -0.058144 13.727381 0.075270
v 0.019723 13.727382 0.208806
v -0.056989 13.727382 0.343009
v -0.211568 13.727381 0.343675
v -0.168847 14.775669 0.151184
v -0.202333 14.775669 0.209765
v -0.101370 14.775669 0.150893
v -0.067381 14.775669 0.209183
v -0.100867 14.775669 0.267764
v -0.168343 14.775669 0.268055
v -0.313340 1.202998 0.128609
v -0.154977 1.202999 -0.148436
v 0.164133 1.202999 -0.149813
v 0.324880 1.203000 0.125857
v 0.166517 1.202998 0.402902
v -0.152593 1.202998 0.404278
v 0.221068 9.315884 0.131766
v 0.114233 9.315884 0.318666
v -0.102652 9.315884 -0.053277
v 0.112626 9.315884 -0.054205
v -0.101044 9.315884 0.319594
v -0.209487 9.315884 0.133623
v 0.059074 5.083297 0.013132
v 0.059023 5.190259 0.001478
v -0.048520 5.083298 0.013596
v -0.048570 5.190259 0.001942
v 0.027267 4.940109 -1.532985
v 0.027241 4.997091 -1.539194
v -0.030051 4.940109 -1.532738
v -0.030078 4.997090 -1.538947
v 0.042280 8.784034 0.071319
v 0.028936 8.863012 0.088943
v -0.038566 8.770255 0.071853
v -0.051910 8.849234 0.089476
v -0.029864 9.048710 -1.080270
v -0.036973 9.090784 -1.070881
v -0.072933 9.041369 -1.079985
v -0.080042 9.083444 -1.070597
v 0.041248 7.040013 -0.008959
v 0.062852 7.120706 0.012030
v -0.018770 7.040013 0.052818
v 0.002833 7.120706 0.073807
v -0.802908 7.493520 -0.801035
v -0.791400 7.536508 -0.789854
v -0.834882 7.493520 -0.768125
v -0.823373 7.536508 -0.756944
v -0.039460 8.037245 0.153127
v -0.004886 8.121312 0.128091
v 0.025215 8.030993 0.221446
v 0.059788 8.115061 0.196410
v -0.871371 8.664768 1.028481
v -0.852953 8.709553 1.015144
v -0.836917 8.661438 1.064877
v -0.818498 8.706223 1.051540
v -0.041192 4.375707 0.061790
v -0.014192 4.465601 0.041639
v 0.050660 4.347826 0.060483
v 0.077660 4.437720 0.040333
v 0.088682 4.663107 1.411112
v 0.103066 4.710996 1.400377
v 0.137615 4.648253 1.410415
v 0.151999 4.696142 1.399681
v 0.013834 6.163120 0.119152
v 0.003110 6.241917 0.091763
v 0.092153 6.163119 0.088488
v 0.081430 6.241917 0.061099
v 0.444183 6.605978 1.164424
v 0.438470 6.647955 1.149833
v 0.485906 6.605978 1.148088
v 0.480193 6.647956 1.133498
v -0.103985 10.499069 0.209000
v -0.098799 10.566225 0.255791
v -0.117929 10.545994 0.143198
v -0.112743 10.613150 0.189989
v 1.057839 10.580477 -0.003019
v 1.060602 10.616253 0.021908
v 1.050411 10.605474 -0.038073
v 1.053174 10.641251 -0.013146
v 0.016358 6.534602 0.053974
v -0.014803 6.633127 0.115287
v -0.014329 6.588832 -0.048764
v -0.045489 6.687357 0.012549
v 1.616897 7.180733 -0.115867
v 1.600297 7.233220 -0.083204
v 1.600549 7.209622 -0.170598
v 1.583950 7.262109 -0.137935
v 0.009037 9.397732 0.195581
v 0.075833 9.395898 0.148029
v 0.038589 9.335096 0.239509
v 0.105385 9.333262 0.191956
v 0.569795 10.146213 0.921352
v 0.605379 10.145235 0.896019
v 0.585538 10.112844 0.944753
v 0.621122 10.111868 0.919421
v -0.132143 12.124930 0.208646
v -0.131667 12.073856 0.235446
v -0.189789 12.125421 0.210606
v -0.189312 12.074347 0.237407
v -0.117160 12.499854 0.951884
v -0.116906 12.472646 0.966161
v -0.147870 12.500115 0.952928
v -0.147616 12.472907 0.967206
v -0.037149 11.731199 0.166787
v -0.083704 11.688736 0.144324
v 0.008376 11.682214 0.165036
v -0.038180 11.639750 0.142574
v 0.183935 11.948004 -0.747819
v 0.159134 11.925383 -0.759786
v 0.208187 11.921908 -0.748752
v 0.183386 11.899287 -0.760718
v -0.106324 11.366726 0.193666
v -0.124405 11.312956 0.216534
v -0.148925 11.362473 0.149983
v -0.167006 11.308703 0.172851
v -0.697612 11.769350 0.711091
v -0.707244 11.740705 0.723274
v -0.720306 11.767084 0.687820
v -0.729939 11.738440 0.700002
v -0.177280 13.569639 0.236307
v -0.220042 13.519279 0.229735
v -0.182355 13.582424 0.171356
v -0.225118 13.532065 0.164784
v -0.917659 14.157308 0.393987
v -0.940440 14.130480 0.390486
v -0.920363 14.164119 0.359386
v -0.943144 14.137291 0.355885
vt 0.036382 0.789463
vt 0.019693 0.789463
vt 0.019693 0.806691
vt 0.036382 0.806691
vt 0.447597 0.864384
vt 0.447597 0.847155
vt 0.150534 0.847155
vt 0.150534 0.864384
vt 0.774700 0.193309
vt 0.767356 0.193309
vt 0.767356 0.200922
vt 0.774700 0.200922
vt 0.821429 0.539463
vt 0.804739 0.539463
vt 0.804739 0.845153
vt 0.821429 0.845153
vt 0.225300 0.825922
vt 0.522363 0.825922
vt 0.522363 0.808693
vt 0.225300 0.808693
vt 0.802737 0.845153
vt 0.802737 0.539463
vt 0.786048 0.539463
vt 0.786048 0.845153
vt 0.225300 0.383614
vt 0.522363 0.383614
vt 0.522363 0.308693
vt 0.225300 0.308693
vt 0.746663 0.537461
vt 0.746663 0.231770
vt 0.673898 0.231770
vt 0.673898 0.537461
vt 0.225300 0.460537
vt 0.522363 0.460537
vt 0.522363 0.385616
vt 0.225300 0.385616
vt 0.671896 0.537461
vt 0.671896 0.231770
vt 0.599132 0.231770
vt 0.599132 0.537461
vt 0.522363 0.768230
vt 0.522363 0.731770
vt 0.225300 0.731770
vt 0.225300 0.768230
vt 0.148532 0.768230
vt 0.148532 0.462539
vt 0.075767 0.462539
vt 0.075767 0.768230
vt 0.225300 0.537461
vt 0.522363 0.537461
vt 0.522363 0.462539
vt 0.225300 0.462539
vt 0.064851 0.460537
vt 0.001001 0.377095
vt 0.010917 0.239873
vt 0.086940 0.154847
vt 0.148532 0.269535
vt 0.148532 0.441431
vt 0.746663 0.229768
vt 0.746663 0.193309
vt 0.449599 0.193309
vt 0.449599 0.229768
vt 0.784046 0.539463
vt 0.748665 0.539463
vt 0.748665 0.845153
vt 0.784046 0.845153
vt 0.522363 0.806691
vt 0.522363 0.770232
vt 0.225300 0.770232
vt 0.225300 0.806691
vt 0.746663 0.539463
vt 0.711281 0.539463
vt 0.711281 0.845153
vt 0.746663 0.845153
vt 0.746663 0.191307
vt 0.746663 0.154847
vt 0.449599 0.154847
vt 0.449599 0.191307
vt 0.634513 0.539463
vt 0.599132 0.539463
vt 0.599132 0.845153
vt 0.634513 0.845153
vt 0.148532 0.797576
vt 0.130841 0.806691
vt 0.113151 0.797576
vt 0.113151 0.779347
vt 0.130841 0.770232
vt 0.148532 0.779347
vt 0.522363 0.652845
vt 0.522363 0.616386
vt 0.225300 0.616386
vt 0.225300 0.652845
vt 0.671896 0.539463
vt 0.636515 0.539463
vt 0.636515 0.845153
vt 0.671896 0.845153
vt 0.522363 0.691307
vt 0.522363 0.654847
vt 0.225300 0.654847
vt 0.225300 0.691307
vt 0.709279 0.539463
vt 0.673898 0.539463
vt 0.673898 0.845153
vt 0.709279 0.845153
vt 0.522363 0.729768
vt 0.522363 0.693309
vt 0.225300 0.693309
vt 0.225300 0.729768
vt 0.821429 0.537461
vt 0.821429 0.231770
vt 0.748665 0.231770
vt 0.748665 0.537461
vt 0.001001 0.152845
vt 0.298064 0.152845
vt 0.298064 0.001001
vt 0.001001 0.001001
vt 0.223298 0.845153
vt 0.223298 0.539463
vt 0.150534 0.539463
vt 0.150534 0.845153
vt 0.300066 0.075922
vt 0.597130 0.075922
vt 0.597130 0.001001
vt 0.300066 0.001001
vt 0.073765 0.768230
vt 0.073765 0.462539
vt 0.001001 0.462539
vt 0.001001 0.768230
vt 0.300066 0.152845
vt 0.597130 0.152845
vt 0.597130 0.077924
vt 0.300066 0.077924
vt 0.597130 0.539463
vt 0.524365 0.539463
vt 0.524365 0.845153
vt 0.597130 0.845153
vt 0.522363 0.306691
vt 0.522363 0.231770
vt 0.225300 0.231770
vt 0.225300 0.306691
vt 0.223298 0.231770
vt 0.150534 0.231770
vt 0.150534 0.537461
vt 0.223298 0.537461
vt 0.447597 0.229768
vt 0.447597 0.154847
vt 0.150534 0.154847
vt 0.150534 0.229768
vt 0.597130 0.231770
vt 0.524365 0.231770
vt 0.524365 0.537461
vt 0.597130 0.537461
vt 0.522363 0.614384
vt 0.522363 0.539463
vt 0.225300 0.539463
vt 0.225300 0.614384
vt 0.111149 0.770232
vt 0.075767 0.770232
vt 0.075767 0.806691
vt 0.111149 0.806691
vt 0.840120 0.539463
vt 0.823431 0.539463
vt 0.823431 0.845153
vt 0.840120 0.845153
vt 0.017691 0.789463
vt 0.001001 0.789463
vt 0.001001 0.806691
vt 0.017691 0.806691
vt 0.447597 0.883614
vt 0.447597 0.866386
vt 0.150534 0.866386
vt 0.150534 0.883614
vt 0.858812 0.537461
vt 0.858812 0.231770
vt 0.842122 0.231770
vt 0.842122 0.537461
vt 0.449599 0.883614
vt 0.746663 0.883614
vt 0.746663 0.866386
vt 0.449599 0.866386
vt 0.036382 0.770232
vt 0.019693 0.770232
vt 0.019693 0.787461
vt 0.036382 0.787461
vt 0.858812 0.539463
vt 0.842122 0.539463
vt 0.842122 0.845153
vt 0.858812 0.845153
vt 0.774700 0.202924
vt 0.767356 0.202924
vt 0.767356 0.210537
vt 0.774700 0.210537
vt 0.447597 0.902845
vt 0.447597 0.885616
vt 0.150534 0.885616
vt 0.150534 0.902845
vt 0.877504 0.845153
vt 0.877504 0.539463
vt 0.860814 0.539463
vt 0.860814 0.845153
vt 0.449599 0.902845
vt 0.746663 0.902845
vt 0.746663 0.885616
vt 0.449599 0.885616
vt 0.017691 0.770232
vt 0.001001 0.770232
vt 0.001001 0.787461
vt 0.017691 0.787461
vt 0.896195 0.231770
vt 0.879506 0.231770
vt 0.879506 0.537461
vt 0.896195 0.537461
vt 0.765354 0.222155
vt 0.758010 0.222155
vt 0.758010 0.229768
vt 0.765354 0.229768
vt 0.896195 0.018230
vt 0.896195 0.001001
vt 0.599132 0.001001
vt 0.599132 0.018230
vt 0.896195 0.845153
vt 0.896195 0.539463
vt 0.879506 0.539463
vt 0.879506 0.845153
vt 0.599132 0.037461
vt 0.896195 0.037461
vt 0.896195 0.020232
vt 0.599132 0.020232
vt 0.073765 0.789463
vt 0.057076 0.789463
vt 0.057076 0.806691
vt 0.073765 0.806691
vt 0.914887 0.001001
vt 0.898197 0.001001
vt 0.898197 0.306691
vt 0.914887 0.306691
vt 0.055074 0.789463
vt 0.038384 0.789463
vt 0.038384 0.806691
vt 0.055074 0.806691
vt 0.896195 0.056691
vt 0.896195 0.039463
vt 0.599132 0.039463
vt 0.599132 0.056691
vt 0.914887 0.614384
vt 0.914887 0.308693
vt 0.898197 0.308693
vt 0.898197 0.614384
vt 0.599132 0.075922
vt 0.896195 0.075922
vt 0.896195 0.058693
vt 0.599132 0.058693
vt 0.073765 0.770232
vt 0.057076 0.770232
vt 0.057076 0.787461
vt 0.073765 0.787461
vt 0.914887 0.616386
vt 0.898197 0.616386
vt 0.898197 0.922076
vt 0.914887 0.922076
vt 0.055074 0.770232
vt 0.038384 0.770232
vt 0.038384 0.787461
vt 0.055074 0.787461
vt 0.896195 0.095153
vt 0.896195 0.077924
vt 0.599132 0.077924
vt 0.599132 0.095153
vt 0.933578 0.306691
vt 0.933578 0.001001
vt 0.916889 0.001001
vt 0.916889 0.306691
vt 0.599132 0.114384
vt 0.896195 0.114384
vt 0.896195 0.097155
vt 0.599132 0.097155
vt 0.036382 0.827924
vt 0.019693 0.827924
vt 0.019693 0.845153
vt 0.036382 0.845153
vt 0.933578 0.308693
vt 0.916889 0.308693
vt 0.916889 0.614384
vt 0.933578 0.614384
vt 0.756008 0.222155
vt 0.748665 0.222155
vt 0.748665 0.229768
vt 0.756008 0.229768
vt 0.896195 0.133614
vt 0.896195 0.116386
vt 0.599132 0.116386
vt 0.599132 0.133614
vt 0.933578 0.922076
vt 0.933578 0.616386
vt 0.916889 0.616386
vt 0.916889 0.922076
vt 0.599132 0.152845
vt 0.896195 0.152845
vt 0.896195 0.135616
vt 0.599132 0.135616
vt 0.017691 0.827924
vt 0.001001 0.827924
vt 0.001001 0.845153
vt 0.017691 0.845153
vt 0.952270 0.001001
vt 0.935580 0.001001
vt 0.935580 0.306691
vt 0.952270 0.306691
vt 0.765354 0.212539
vt 0.758010 0.212539
vt 0.758010 0.220153
vt 0.765354 0.220153
vt 0.447597 0.922076
vt 0.447597 0.904847
vt 0.150534 0.904847
vt 0.150534 0.922076
vt 0.952270 0.614384
vt 0.952270 0.308693
vt 0.935580 0.308693
vt 0.935580 0.614384
vt 0.449599 0.922076
vt 0.746663 0.922076
vt 0.746663 0.904847
vt 0.449599 0.904847
vt 0.784046 0.154847
vt 0.748665 0.154847
vt 0.748665 0.191307
vt 0.784046 0.191307
vt 0.952270 0.616386
vt 0.935580 0.616386
vt 0.935580 0.922076
vt 0.952270 0.922076
vt 0.036382 0.808693
vt 0.019693 0.808693
vt 0.019693 0.825922
vt 0.036382 0.825922
vt 0.746663 0.941307
vt 0.746663 0.924078
vt 0.449599 0.924078
vt 0.449599 0.941307
vt 0.970962 0.306691
vt 0.970962 0.001001
vt 0.954272 0.001001
vt 0.954272 0.306691
vt 0.150534 0.960537
vt 0.447597 0.960537
vt 0.447597 0.943309
vt 0.150534 0.943309
vt 0.017691 0.808693
vt 0.001001 0.808693
vt 0.001001 0.825922
vt 0.017691 0.825922
vt 0.970962 0.308693
vt 0.954272 0.308693
vt 0.954272 0.614384
vt 0.970962 0.614384
vt 0.756008 0.212539
vt 0.748665 0.212539
vt 0.748665 0.220153
vt 0.756008 0.220153
vt 0.746663 0.960537
vt 0.746663 0.943309
vt 0.449599 0.943309
vt 0.449599 0.960537
vt 0.970962 0.922076
vt 0.970962 0.616386
vt 0.954272 0.616386
vt 0.954272 0.922076
vt 0.150534 0.979768
vt 0.447597 0.979768
vt 0.447597 0.962539
vt 0.150534 0.962539
vt 0.073765 0.827924
vt 0.057076 0.827924
vt 0.057076 0.845153
vt 0.073765 0.845153
vt 0.989653 0.616386
vt 0.982309 0.616386
vt 0.982309 0.922076
vt 0.989653 0.922076
vt 0.765354 0.202924
vt 0.758010 0.202924
vt 0.758010 0.210537
vt 0.765354 0.210537
vt 0.447597 0.989384
vt 0.447597 0.981770
vt 0.150534 0.981770
vt 0.150534 0.989384
vt 0.980307 0.922076
vt 0.980307 0.616386
vt 0.972964 0.616386
vt 0.972964 0.922076
vt 0.449599 0.998999
vt 0.746663 0.998999
vt 0.746663 0.991386
vt 0.449599 0.991386
vt 0.055074 0.827924
vt 0.038384 0.827924
vt 0.038384 0.845153
vt 0.055074 0.845153
vt 0.989653 0.308693
vt 0.972964 0.308693
vt 0.972964 0.614384
vt 0.989653 0.614384
vt 0.756008 0.202924
vt 0.748665 0.202924
vt 0.748665 0.210537
vt 0.756008 0.210537
vt 0.746663 0.979768
vt 0.746663 0.962539
vt 0.449599 0.962539
vt 0.449599 0.979768
vt 0.989653 0.306691
vt 0.989653 0.001001
vt 0.972964 0.001001
vt 0.972964 0.306691
vt 0.150534 0.941307
vt 0.447597 0.941307
vt 0.447597 0.924078
vt 0.150534 0.924078
vt 0.073765 0.808693
vt 0.057076 0.808693
vt 0.057076 0.825922
vt 0.073765 0.825922
vt 0.998999 0.001001
vt 0.991655 0.001001
vt 0.991655 0.306691
vt 0.998999 0.306691
vt 0.765354 0.193309
vt 0.758010 0.193309
vt 0.758010 0.200922
vt 0.765354 0.200922
vt 0.447597 0.998999
vt 0.447597 0.991386
vt 0.150534 0.991386
vt 0.150534 0.998999
vt 0.998999 0.614384
vt 0.998999 0.308693
vt 0.991655 0.308693
vt 0.991655 0.614384
vt 0.449599 0.989384
vt 0.746663 0.989384
vt 0.746663 0.981770
vt 0.449599 0.981770
vt 0.055074 0.808693
vt 0.038384 0.808693
vt 0.038384 0.825922
vt 0.055074 0.825922
vt 0.877504 0.231770
vt 0.860814 0.231770
vt 0.860814 0.537461
vt 0.877504 0.537461
vt 0.756008 0.193309
vt 0.748665 0.193309
vt 0.748665 0.200922
vt 0.756008 0.200922
vt 0.746663 0.864384
vt 0.746663 0.847155
vt 0.449599 0.847155
vt 0.449599 0.864384
vt 0.840120 0.537461
vt 0.840120 0.231770
vt 0.823431 0.231770
vt 0.823431 0.537461
vt 0.225300 0.845153
vt 0.522363 0.845153
vt 0.522363 0.827924
vt 0.225300 0.827924
vn -0.4344 -0.4226 0.7954
vn 0.7541 -0.6554 0.0433
vn 0.4344 0.4226 -0.7954
vn -0.7400 0.6691 -0.0691
vn 0.5100 0.6255 0.5905
vn -0.4960 -0.6118 -0.6162
vn -0.8681 -0.0089 -0.4962
vn -0.0043 -0.0278 -0.9996
vn 0.8638 -0.0089 -0.5037
vn 0.8678 0.0290 0.4961
vn 0.8678 0.0309 0.4960
vn 0.0043 0.0479 0.9988
vn -0.8635 0.0290 0.5035
vn -0.0010 -1.0000 0.0017
vn 0.0043 0.0718 0.9974
vn -0.0043 0.0292 -0.9996
vn 0.0043 -0.0054 1.0000
vn -0.8682 -0.0071 -0.4962
vn 0.8629 0.0482 -0.5031
vn -0.8636 -0.0244 0.5036
vn 0.0000 1.0000 0.0000
vn 0.8616 0.0718 -0.5024
vn -0.8659 0.0718 -0.4950
vn -0.8616 0.0718 0.5024
vn 0.8659 0.0718 0.4950
vn -0.0043 0.0718 -0.9974
vn -0.9273 0.0866 0.3641
vn 0.0802 0.0692 0.9944
vn 0.8101 0.0751 0.5815
vn 0.8051 0.0737 -0.5885
vn -0.0043 0.0487 -0.9988
vn -0.8671 0.0492 -0.4957
vn -0.8639 -0.0046 0.5037
vn 0.8635 0.0284 -0.5035
vn -0.8678 0.0284 -0.4961
vn 0.0043 -0.0211 0.9998
vn -0.0043 0.0449 -0.9990
vn 0.8682 -0.0046 0.4963
vn 0.0043 0.1083 0.9941
vn -0.9999 -0.0018 -0.0118
vn -0.0043 -0.1083 -0.9941
vn 0.9998 -0.0018 -0.0204
vn 0.0004 -0.9957 0.0922
vn -0.0005 0.9922 -0.1244
vn 0.0424 -0.2108 0.9766
vn -0.9863 -0.1646 -0.0093
vn -0.0424 0.2108 -0.9766
vn 0.9850 0.1714 -0.0223
vn 0.1620 -0.9595 -0.2307
vn -0.1634 0.9663 0.1990
vn 0.6720 -0.3497 0.6528
vn -0.7076 0.0057 0.7066
vn -0.6719 0.3497 -0.6528
vn 0.6859 0.0057 -0.7277
vn -0.2617 -0.9311 -0.2542
vn 0.2399 0.9424 0.2331
vn 0.6285 -0.4479 -0.6359
vn 0.6757 -0.0591 0.7348
vn -0.6285 0.4479 0.6359
vn -0.6960 0.0736 -0.7142
vn -0.3768 -0.8843 0.2758
vn 0.3565 0.8988 -0.2552
vn -0.0737 -0.1970 -0.9776
vn 0.9579 -0.2872 0.0022
vn 0.0737 0.1970 0.9776
vn -0.9555 0.2936 0.0294
vn -0.2800 -0.9331 0.2257
vn 0.2824 0.9395 -0.1940
vn -0.3416 -0.3497 -0.8724
vn 0.9366 0.0057 -0.3504
vn 0.3416 0.3497 0.8724
vn -0.9255 0.0057 0.3786
vn 0.1330 -0.9311 0.3397
vn -0.1220 0.9424 -0.3115
vn -0.9834 -0.0463 0.1754
vn -0.1541 0.5728 -0.8051
vn 0.9834 0.0463 -0.1754
vn 0.1859 -0.5713 0.7994
vn -0.0473 -0.8180 -0.5733
vn 0.0791 0.8195 0.5676
vn -0.9314 -0.3521 0.0924
vn -0.2403 0.4570 -0.8564
vn 0.9314 0.3521 -0.0924
vn 0.2704 -0.4456 0.8534
vn 0.2744 -0.8142 -0.5117
vn -0.2442 0.8256 0.5087
vn -0.4548 -0.6452 -0.6140
vn 0.3677 -0.7532 0.5455
vn 0.4548 0.6452 0.6140
vn -0.3529 0.7741 -0.5256
vn -0.8070 0.0328 0.5897
vn 0.8217 -0.0119 -0.5698
vn -0.0340 -0.4646 -0.8848
vn -0.9987 0.0160 0.0483
vn 0.0340 0.4646 0.8848
vn 0.9998 -0.0010 -0.0197
vn -0.0077 0.8929 -0.4502
vn 0.0088 -0.8778 0.4789
vn -0.2293 -0.2467 0.9416
vn 0.6841 -0.7282 -0.0414
vn 0.2293 0.2467 -0.9416
vn -0.6767 0.7362 0.0109
vn 0.6996 0.6387 0.3205
vn -0.6921 -0.6307 -0.3510
vn 0.6538 -0.4715 -0.5917
vn -0.7070 -0.0619 -0.7045
vn -0.6539 0.4715 0.5917
vn 0.6858 0.0772 0.7237
vn 0.2850 0.8866 -0.3642
vn -0.3062 -0.8714 0.3834
vn 0.7611 -0.6225 -0.1820
vn -0.0888 0.2026 -0.9752
vn -0.7611 0.6226 0.1820
vn 0.0641 -0.1825 0.9811
vn 0.6317 0.7685 0.1019
vn -0.6563 -0.7483 -0.0960
usemtl Tree5_1.005
s 1
f 1/1/1 2/2/1 4/3/1 3/4/1
f 3/5/2 4/6/2 8/7/2 7/8/2
f 7/9/3 8/10/3 6/11/3 5/12/3
f 5/13/4 6/14/4 2/15/4 1/16/4
f 3/17/5 7/18/5 5/19/5 1/20/5
f 8/21/6 4/22/6 2/23/6 6/24/6
f 33/25/7 10/26/7 12/27/7 34/28/7
f 34/29/8 12/30/8 14/31/8 35/32/8
f 35/33/9 14/34/9 16/35/9 36/36/9
f 36/37/10 16/38/10 18/39/10 37/40/10
f 40/41/11 39/42/11 24/43/11 25/44/11
f 37/45/12 18/46/12 20/47/12 38/48/12
f 38/49/13 20/50/13 10/51/13 33/52/13
f 9/53/14 11/54/14 13/55/14 15/56/14 17/57/14 19/58/14
f 26/59/15 25/60/15 31/61/15 32/62/15
f 42/63/16 41/64/16 21/65/16 23/66/16
f 43/67/17 40/68/17 25/69/17 26/70/17
f 41/71/18 44/72/18 22/73/18 21/74/18
f 39/75/19 42/76/19 23/77/19 24/78/19
f 44/79/20 43/80/20 26/81/20 22/82/20
f 27/83/21 28/84/21 32/85/21 31/86/21 30/87/21 29/88/21
f 24/89/22 23/90/22 29/91/22 30/92/22
f 21/93/23 22/94/23 28/95/23 27/96/23
f 22/97/24 26/98/24 32/99/24 28/100/24
f 25/101/25 24/102/25 30/103/25 31/104/25
f 23/105/26 21/106/26 27/107/26 29/108/26
f 19/109/27 38/110/27 33/111/27 9/112/27
f 17/113/28 37/114/28 38/115/28 19/116/28
f 15/117/29 36/118/29 37/119/29 17/120/29
f 13/121/30 35/122/30 36/123/30 15/124/30
f 11/125/31 34/126/31 35/127/31 13/128/31
f 9/129/32 33/130/32 34/131/32 11/132/32
f 10/133/33 20/134/33 43/135/33 44/136/33
f 16/137/34 14/138/34 42/139/34 39/140/34
f 12/141/35 10/142/35 44/143/35 41/144/35
f 20/145/36 18/146/36 40/147/36 43/148/36
f 14/149/37 12/150/37 41/151/37 42/152/37
f 18/153/38 16/154/38 39/155/38 40/156/38
f 45/157/39 46/158/39 48/159/39 47/160/39
f 47/161/40 48/162/40 52/163/40 51/164/40
f 51/165/41 52/166/41 50/167/41 49/168/41
f 49/169/42 50/170/42 46/171/42 45/172/42
f 47/173/43 51/174/43 49/175/43 45/176/43
f 52/177/44 48/178/44 46/179/44 50/180/44
f 53/181/45 54/182/45 56/183/45 55/184/45
f 55/185/46 56/186/46 60/187/46 59/188/46
f 59/189/47 60/190/47 58/191/47 57/192/47
f 57/193/48 58/194/48 54/195/48 53/196/48
f 55/197/49 59/198/49 57/199/49 53/200/49
f 60/201/50 56/202/50 54/203/50 58/204/50
f 61/205/51 62/206/51 64/207/51 63/208/51
f 63/209/52 64/210/52 68/211/52 67/212/52
f 67/213/53 68/214/53 66/215/53 65/216/53
f 65/217/54 66/218/54 62/219/54 61/220/54
f 63/221/55 67/222/55 65/223/55 61/224/55
f 68/225/56 64/226/56 62/227/56 66/228/56
f 69/229/57 70/230/57 72/231/57 71/232/57
f 71/233/58 72/234/58 76/235/58 75/236/58
f 75/237/59 76/238/59 74/239/59 73/240/59
f 73/241/60 74/242/60 70/243/60 69/244/60
f 71/245/61 75/246/61 73/247/61 69/248/61
f 76/249/62 72/250/62 70/251/62 74/252/62
f 77/253/63 78/254/63 80/255/63 79/256/63
f 79/257/64 80/258/64 84/259/64 83/260/64
f 83/261/65 84/262/65 82/263/65 81/264/65
f 81/265/66 82/266/66 78/267/66 77/268/66
f 79/269/67 83/270/67 81/271/67 77/272/67
f 84/273/68 80/274/68 78/275/68 82/276/68
f 85/277/69 86/278/69 88/279/69 87/280/69
f 87/281/70 88/282/70 92/283/70 91/284/70
f 91/285/71 92/286/71 90/287/71 89/288/71
f 89/289/72 90/290/72 86/291/72 85/292/72
f 87/293/73 91/294/73 89/295/73 85/296/73
f 92/297/74 88/298/74 86/299/74 90/300/74
f 93/301/75 94/302/75 96/303/75 95/304/75
f 95/305/76 96/306/76 100/307/76 99/308/76
f 99/309/77 100/310/77 98/311/77 97/312/77
f 97/313/78 98/314/78 94/315/78 93/316/78
f 95/317/79 99/318/79 97/319/79 93/320/79
f 100/321/80 96/322/80 94/323/80 98/324/80
f 101/325/81 102/326/81 104/327/81 103/328/81
f 103/329/82 104/330/82 108/331/82 107/332/82
f 107/333/83 108/334/83 106/335/83 105/336/83
f 105/337/84 106/338/84 102/339/84 101/340/84
f 103/341/85 107/342/85 105/343/85 101/344/85
f 108/345/86 104/346/86 102/347/86 106/348/86
f 109/349/87 110/350/87 112/351/87 111/352/87
f 111/353/88 112/354/88 116/355/88 115/356/88
f 115/357/89 116/358/89 114/359/89 113/360/89
f 113/361/90 114/362/90 110/363/90 109/364/90
f 111/365/91 115/366/91 113/367/91 109/368/91
f 116/369/92 112/370/92 110/371/92 114/372/92
f 117/373/93 118/374/93 120/375/93 119/376/93
f 119/377/94 120/378/94 124/379/94 123/380/94
f 123/381/95 124/382/95 122/383/95 121/384/95
f 121/385/96 122/386/96 118/387/96 117/388/96
f 119/389/97 123/390/97 121/391/97 117/392/97
f 124/393/98 120/394/98 118/395/98 122/396/98
f 125/397/99 126/398/99 128/399/99 127/400/99
f 127/401/100 128/402/100 132/403/100 131/404/100
f 131/405/101 132/406/101 130/407/101 129/408/101
f 129/409/102 130/410/102 126/411/102 125/412/102
f 127/413/103 131/414/103 129/415/103 125/416/103
f 132/417/104 128/418/104 126/419/104 130/420/104
f 133/421/105 134/422/105 136/423/105 135/424/105
f 135/425/106 136/426/106 140/427/106 139/428/106
f 139/429/107 140/430/107 138/431/107 137/432/107
f 137/433/108 138/434/108 134/435/108 133/436/108
f 135/437/109 139/438/109 137/439/109 133/440/109
f 140/441/110 136/442/110 134/443/110 138/444/110
f 141/445/111 142/446/111 144/447/111 143/448/111
f 143/449/112 144/450/112 148/451/112 147/452/112
f 147/453/113 148/454/113 146/455/113 145/456/113
f 145/457/114 146/458/114 142/459/114 141/460/114
f 143/461/115 147/462/115 145/463/115 141/464/115
f 148/465/116 144/466/116 142/467/116 146/468/116
